<svg width="393" height="852" viewBox="0 0 393 852" fill="none" xmlns="http://www.w3.org/2000/svg">
  <!-- Device Frame -->
  <rect width="393" height="852" fill="#F9FAFB"/>
  
  <!-- Logo Placeholder -->
  <rect x="146" y="150" width="100" height="100" rx="20" fill="#E5E7EB" stroke="#9CA3AF" stroke-width="2"/>
  <text x="196" y="210" font-family="Arial" font-size="14" fill="#6B7280" text-anchor="middle">LOGO</text>
  
  <!-- App Name -->
  <text x="196" y="280" font-family="Arial" font-size="24" font-weight="bold" fill="#111827" text-anchor="middle">Inspired</text>
  <text x="196" y="305" font-family="Arial" font-size="16" fill="#4B5563" text-anchor="middle">Yoga Platform</text>

  <!-- Google Login Button -->
  <rect x="40" y="450" width="313" height="50" rx="12" fill="white" stroke="#D1D5DB" stroke-width="1"/>
  <rect x="55" y="463" width="24" height="24" rx="4" fill="#EA4335"/>
  <text x="196" y="482" font-family="Arial" font-size="16" font-weight="medium" fill="#374151" text-anchor="middle">Sign in with Google</text>

  <!-- Email Login Button -->
  <rect x="40" y="515" width="313" height="50" rx="12" fill="#111827"/>
  <text x="196" y="547" font-family="Arial" font-size="16" font-weight="medium" fill="white" text-anchor="middle">Log in with Email</text>

  <!-- Divider -->
  <line x1="40" y1="595" x2="170" y2="595" stroke="#E5E7EB" stroke-width="1"/>
  <text x="196" y="600" font-family="Arial" font-size="14" fill="#9CA3AF" text-anchor="middle">or</text>
  <line x1="222" y1="595" x2="353" y2="595" stroke="#E5E7EB" stroke-width="1"/>

  <!-- Create Account Button -->
  <rect x="40" y="625" width="313" height="50" rx="12" fill="white" stroke="#111827" stroke-width="1"/>
  <text x="196" y="657" font-family="Arial" font-size="16" font-weight="medium" fill="#111827" text-anchor="middle">Create Account</text>

  <!-- Implicit Acceptance -->
  <text x="196" y="720" font-family="Arial" font-size="11" fill="#6B7280" text-anchor="middle">By logging in or creating an account, you accept our</text>
  <text x="196" y="735" font-family="Arial" font-size="11" font-weight="bold" fill="#4B5563" text-anchor="middle">Privacy Policy &amp; Terms and Conditions</text>

  <!-- Legal Footer -->
  <text x="100" y="800" font-family="Arial" font-size="12" fill="#6B7280" text-anchor="middle">Privacy</text>
  <circle cx="145" cy="796" r="2" fill="#9CA3AF"/>
  <text x="196" y="800" font-family="Arial" font-size="12" fill="#6B7280" text-anchor="middle">Terms</text>
  <circle cx="247" cy="796" r="2" fill="#9CA3AF"/>
  <text x="295" y="800" font-family="Arial" font-size="12" fill="#6B7280" text-anchor="middle">Support (RI)</text>
</svg>
