<svg width="393" height="852" viewBox="0 0 393 852" fill="none" xmlns="http://www.w3.org/2000/svg">
  <!-- Device Frame -->
  <rect width="393" height="852" fill="#F9FAFB"/>
  
  <!-- Navigation Bar -->
  <rect x="0" y="0" width="393" height="115" fill="white" stroke="#E5E7EB" stroke-width="1"/>
  
  <!-- Profile Icon (P) -->
  <circle cx="35" cy="55" r="18" fill="#F3F4F6" stroke="#9CA3AF" stroke-width="1.5"/>
  <text x="35" y="60" font-family="Arial" font-size="14" fill="#4B5563" text-anchor="middle">P</text>
  
  <!-- Search Bar -->
  <rect x="65" y="40" width="218" height="32" rx="10" fill="#F3F4F6"/>
  <text x="80" y="61" font-family="Arial" font-size="12" fill="#9CA3AF">Search Areas...</text>
  
  <!-- Area Label (Left-aligned, Bold Area) -->
  <text x="20" y="95" font-family="Arial" font-size="12" fill="#6B7280">You're currently viewing <tspan font-weight="bold" fill="#111827">Askew</tspan></text>
  
  <!-- Joined Communities (JC) -->
  <rect x="300" y="41" width="30" height="30" rx="6" fill="#F3F4F6" stroke="#9CA3AF" stroke-width="1.5"/>
  <text x="315" y="61" font-family="Arial" font-size="10" fill="#4B5563" text-anchor="middle">JC</text>
  
  <!-- Notifications (N) -->
  <rect x="345" y="41" width="30" height="30" rx="6" fill="#F3F4F6" stroke="#9CA3AF" stroke-width="1.5"/>
  <text x="360" y="61" font-family="Arial" font-size="10" fill="#4B5563" text-anchor="middle">N</text>

  <!-- Post Entry Bar (Outside/Above Feed) -->
  <rect x="0" y="130" width="393" height="60" fill="white" stroke="#E5E7EB" stroke-width="1"/>
  <rect x="20" y="140" width="353" height="40" rx="20" fill="#F3F4F6"/>
  <text x="45" y="165" font-family="Arial" font-size="14" fill="#6B7280">What's on your mind?</text>
  
  <!-- SF Symbol Placeholder: square.and.pencil (SP) -->
  <rect x="335" y="145" width="30" height="30" rx="6" fill="white" stroke="#9CA3AF" stroke-width="1"/>
  <text x="350" y="165" font-family="Arial" font-size="10" fill="#4B5563" text-anchor="middle">SP</text>

  <!-- Feed Content Box -->
  <rect x="0" y="205" width="393" height="647" fill="white" stroke="#E5E7EB" stroke-width="1"/>
  <text x="196" y="500" font-family="Arial" font-size="16" fill="#9CA3AF" text-anchor="middle">[Community Feed Area]</text>
</svg>
